<svg id="visual" viewBox="0 0 900 600" width="900" height="600" xmlns="http://www.w3.org/2000/svg" xmlns:xlink="http://www.w3.org/1999/xlink" version="1.1"><path d="M0 163L129 217L257 157L386 205L514 163L643 157L771 187L900 181L900 0L771 0L643 0L514 0L386 0L257 0L129 0L0 0Z" fill="#00cc8e"></path><path d="M0 259L129 367L257 265L386 325L514 313L643 283L771 337L900 331L900 179L771 185L643 155L514 161L386 203L257 155L129 215L0 161Z" fill="#00b388"></path><path d="M0 481L129 493L257 511L386 517L514 493L643 481L771 511L900 493L900 329L771 335L643 281L514 311L386 323L257 263L129 365L0 257Z" fill="#009b7f"></path><path d="M0 601L129 601L257 601L386 601L514 601L643 601L771 601L900 601L900 491L771 509L643 479L514 491L386 515L257 509L129 491L0 479Z" fill="#038373"></path></svg>